<svg width="350" height="84" viewBox="0 0 350 84" fill="none" xmlns="http://www.w3.org/2000/svg">
<path fill-rule="evenodd" clip-rule="evenodd" d="M0.495002 37.325H6.791C7.065 37.325 7.287 37.103 7.287 36.83V22.175H18.558C18.767 22.175 18.953 22.044 19.024 21.848L21.019 16.338C21.137 16.015 20.897 15.674 20.554 15.674H7.287V6.5H24.24C24.447 6.5 24.633 6.37 24.704 6.175L26.72 0.664C26.838 0.342 26.599 -4.19617e-07 26.255 -4.19617e-07H0.495002C0.222002 -4.19617e-07 -3.78418e-07 0.221 -3.78418e-07 0.494V36.83C-3.78418e-07 37.103 0.222002 37.325 0.495002 37.325Z" transform="translate(102.649 7.0647)" fill="white"/>
<path fill-rule="evenodd" clip-rule="evenodd" d="M11.6881 24.586L16.4071 11.008L20.9671 24.586H11.6881ZM13.2471 0.325L0.0300611 36.661C-0.0869389 36.983 0.152064 37.325 0.496064 37.325H7.03606C7.24806 37.325 7.43606 37.19 7.50406 36.99L9.64406 30.719H22.9071L24.9961 36.986C25.0631 37.189 25.2521 37.325 25.4651 37.325H32.0021C32.3461 37.325 32.5851 36.983 32.4671 36.66L19.1991 0.325C19.1271 0.129 18.9421 -1.2207e-08 18.7341 -1.2207e-08H13.7121C13.5041 -1.2207e-08 13.3181 0.129 13.2471 0.325Z" transform="translate(130.226 7.065)" fill="white"/>
<path fill-rule="evenodd" clip-rule="evenodd" d="M21.283 22.856L6.64701 0.226C6.55501 0.0849998 6.39901 -1.2207e-08 6.23101 -1.2207e-08H0.494999C0.220999 -1.2207e-08 4.22363e-06 0.221 4.22363e-06 0.494V36.83C4.22363e-06 37.103 0.220999 37.325 0.494999 37.325H6.791C7.065 37.325 7.286 37.103 7.286 36.83V14.416L21.923 37.098C22.014 37.239 22.171 37.325 22.339 37.325H28.075C28.348 37.325 28.57 37.103 28.57 36.83V0.494C28.57 0.221 28.348 -1.2207e-08 28.075 -1.2207e-08H21.778C21.505 -1.2207e-08 21.283 0.221 21.283 0.494V22.856Z" transform="translate(171.219 7.065)" fill="white"/>
<path fill-rule="evenodd" clip-rule="evenodd" d="M20.235 24.272C20.235 28.57 17.666 31.139 13.735 31.139C9.80301 31.139 7.28701 28.57 7.28701 24.272V0.495C7.28701 0.221 7.06501 2.62451e-07 6.79201 2.62451e-07H0.495002C0.222002 2.62451e-07 6.86035e-06 0.221 6.86035e-06 0.495V24.534C6.86035e-06 32.45 6.08101 37.64 13.735 37.64C21.388 37.64 27.469 32.45 27.469 24.534V0.495C27.469 0.221 27.247 2.62451e-07 26.974 2.62451e-07H20.73C20.457 2.62451e-07 20.235 0.221 20.235 0.495V24.272Z" transform="translate(249.801 7.0645)" fill="white"/>
<path fill-rule="evenodd" clip-rule="evenodd" d="M24.704 6.173L26.691 0.663C26.807 0.34 26.568 1.26648e-07 26.225 1.26648e-07H0.495986C0.221986 1.26648e-07 1.46973e-05 0.221 1.46973e-05 0.495V36.83C1.46973e-05 37.104 0.221986 37.325 0.495986 37.325H26.225C26.568 37.325 26.807 36.985 26.691 36.663L24.704 31.152C24.633 30.956 24.447 30.825 24.239 30.825H7.287V21.756H20.937C21.211 21.756 21.433 21.534 21.433 21.26V15.75C21.433 15.477 21.211 15.255 20.937 15.255H7.287V6.5H24.239C24.447 6.5 24.633 6.369 24.704 6.173Z" transform="translate(289.066 7.0644)" fill="white"/>
<path fill-rule="evenodd" clip-rule="evenodd" d="M22.707 30.825H7.28701V0.495C7.28701 0.221 7.06501 -1.44958e-07 6.79101 -1.44958e-07H0.494988C0.221988 -1.44958e-07 -7.42188e-06 0.221 -7.42188e-06 0.495V36.83C-7.42188e-06 37.104 0.221988 37.325 0.494988 37.325H24.707C25.05 37.325 25.289 36.985 25.172 36.662L23.172 31.151C23.101 30.955 22.915 30.825 22.707 30.825Z" transform="translate(324.452 7.0642)" fill="white"/>
<path fill-rule="evenodd" clip-rule="evenodd" d="M25.1554 3.564C22.6914 1.1 19.1794 -1.2207e-08 15.3004 -1.2207e-08H0.495422C0.183422 -1.2207e-08 -0.0505705 0.285 0.00942945 0.591L1.10342 6.101C1.14942 6.333 1.35243 6.5 1.58943 6.5H9.11442H11.0264H14.6184C17.1344 6.5 18.8124 7.286 20.0704 8.806C21.4334 10.484 21.6434 12.843 21.6434 18.505C21.6434 24.167 21.4334 26.84 20.0704 28.518C18.8124 30.038 17.1344 30.824 14.6184 30.824H9.11442V11.402C9.11442 11.129 8.89243 10.907 8.61943 10.907H2.32243C2.04943 10.907 1.82742 11.129 1.82742 11.402V36.83C1.82742 37.103 2.04943 37.325 2.32243 37.325H15.3004C19.1794 37.325 22.6914 36.224 25.1554 33.76C29.3494 29.566 28.9294 24.114 28.9294 18.505C28.9294 12.895 29.3494 7.758 25.1554 3.564Z" transform="translate(210.334 7.065)" fill="white"/>
<path fill-rule="evenodd" clip-rule="evenodd" d="M0.183001 4.487C0.183001 1.587 1.77 -1.08643e-06 4.67 -1.08643e-06H10.623C13.432 -1.08643e-06 14.989 1.587 14.989 4.487V6.594H10.379V4.67C10.379 4.152 10.135 3.907 9.616 3.907H5.556C5.037 3.907 4.793 4.152 4.793 4.67V6.868C4.793 7.448 4.946 7.601 5.464 7.754L12.241 9.494C14.225 10.013 15.233 11.234 15.233 13.127V17.034C15.233 19.934 13.646 21.521 10.746 21.521H4.366C1.557 21.521 2.05078e-06 19.934 2.05078e-06 17.034V15.111H4.61V16.851C4.61 17.369 4.854 17.614 5.372 17.614H9.83C10.349 17.614 10.593 17.369 10.593 16.851V14.195C10.593 13.737 10.349 13.462 9.86 13.34L2.9 11.539C1.099 11.081 0.183001 9.799 0.183001 7.693V4.487Z" transform="translate(102.717 55.3739)" fill="#1493FF"/>
<path fill-rule="evenodd" clip-rule="evenodd" d="M4.67001 4.029V9.707H9.585C10.104 9.707 10.348 9.463 10.348 8.944V4.792C10.348 4.273 10.104 4.029 9.585 4.029H4.67001ZM4.67001 13.737V21.277H-7.20215e-06V-5.31006e-07H10.531C13.431 -5.31006e-07 15.019 1.587 15.019 4.487V9.249C15.019 12.149 13.431 13.737 10.531 13.737H4.67001Z" transform="translate(128.714 55.4965)" fill="#1493FF"/>
<path fill-rule="evenodd" clip-rule="evenodd" d="M4.66999 16.759C4.66999 17.278 4.91399 17.522 5.43299 17.522H9.88999C10.409 17.522 10.653 17.278 10.653 16.759V4.762C10.653 4.243 10.409 3.999 9.88999 3.999H5.43299C4.91399 3.999 4.66999 4.243 4.66999 4.762V16.759ZM4.48699 21.521C1.58699 21.521 -4.8584e-06 19.934 -4.8584e-06 17.034V4.487C-4.8584e-06 1.587 1.58699 -1.08643e-06 4.48699 -1.08643e-06H10.837C13.736 -1.08643e-06 15.324 1.587 15.324 4.487V17.034C15.324 19.934 13.736 21.521 10.837 21.521H4.48699Z" transform="translate(154.177 55.3739)" fill="#1493FF"/>
<path fill-rule="evenodd" clip-rule="evenodd" d="M4.67 3.968V9.31H9.58501C10.104 9.31 10.348 9.066 10.348 8.547V4.731C10.348 4.212 10.104 3.968 9.58501 3.968H4.67ZM10.073 21.277L7.662 13.279H4.67V21.277H-9.0332e-07V2.86865e-07H10.531C13.431 2.86865e-07 15.019 1.587 15.019 4.487V8.791C15.019 11.02 14.133 12.454 12.363 13.034L15.11 21.277H10.073Z" transform="translate(180.457 55.4964)" fill="#1493FF"/>
<path fill-rule="evenodd" clip-rule="evenodd" d="M14.713 4.06H9.707V21.277H5.036V4.06H3.73535e-06V-1.61743e-06H14.713V4.06Z" transform="translate(205.581 55.4957)" fill="#1493FF"/>
<path fill-rule="evenodd" clip-rule="evenodd" d="M0.183005 4.487C0.183005 1.587 1.771 -1.08643e-06 4.671 -1.08643e-06H10.623C13.432 -1.08643e-06 14.989 1.587 14.989 4.487V6.594H10.379V4.67C10.379 4.152 10.135 3.907 9.616 3.907H5.55601C5.03701 3.907 4.79301 4.152 4.79301 4.67V6.868C4.79301 7.448 4.946 7.601 5.464 7.754L12.242 9.494C14.226 10.013 15.233 11.234 15.233 13.127V17.034C15.233 19.934 13.646 21.521 10.746 21.521H4.366C1.557 21.521 6.37207e-06 19.934 6.37207e-06 17.034V15.111H4.61001V16.851C4.61001 17.369 4.85401 17.614 5.37301 17.614H9.82999C10.349 17.614 10.593 17.369 10.593 16.851V14.195C10.593 13.737 10.349 13.462 9.86001 13.34L2.9 11.539C1.099 11.081 0.183005 9.799 0.183005 7.693V4.487Z" transform="translate(230.288 55.3739)" fill="#1493FF"/>
<path fill-rule="evenodd" clip-rule="evenodd" d="M4.67001 12.302V17.339H9.92001C10.44 17.339 10.684 17.095 10.684 16.576V13.065C10.684 12.546 10.44 12.302 9.92001 12.302H4.67001ZM4.67001 3.938V8.364H9.46301C9.98201 8.364 10.226 8.12 10.226 7.601V4.701C10.226 4.182 9.98201 3.938 9.46301 3.938H4.67001ZM-2.88086e-06 21.277V5.61523e-07H10.378C13.278 5.61523e-07 14.866 1.588 14.866 4.488V6.929C14.866 8.67 14.042 9.769 12.424 10.287C14.378 10.623 15.355 11.783 15.355 13.737V16.79C15.355 19.69 13.767 21.277 10.867 21.277H-2.88086e-06Z" transform="translate(256.286 55.4959)" fill="#1493FF"/>
<path fill-rule="evenodd" clip-rule="evenodd" d="M4.671 16.759C4.671 17.278 4.915 17.522 5.434 17.522H9.891C10.41 17.522 10.654 17.278 10.654 16.759V4.762C10.654 4.243 10.41 3.999 9.891 3.999H5.434C4.915 3.999 4.671 4.243 4.671 4.762V16.759ZM4.48799 21.521C1.58799 21.521 1.26953e-05 19.934 1.26953e-05 17.034V4.487C1.26953e-05 1.587 1.58799 -1.08643e-06 4.48799 -1.08643e-06H10.838C13.737 -1.08643e-06 15.325 1.587 15.325 4.487V17.034C15.325 19.934 13.737 21.521 10.838 21.521H4.48799Z" transform="translate(282.276 55.3739)" fill="#1493FF"/>
<path fill-rule="evenodd" clip-rule="evenodd" d="M4.67099 16.759C4.67099 17.278 4.91499 17.522 5.43399 17.522H9.89099C10.41 17.522 10.654 17.278 10.654 16.759V4.762C10.654 4.243 10.41 3.999 9.89099 3.999H5.43399C4.91499 3.999 4.67099 4.243 4.67099 4.762V16.759ZM4.488 21.521C1.588 21.521 -4.44336e-06 19.934 -4.44336e-06 17.034V4.487C-4.44336e-06 1.587 1.588 -1.08643e-06 4.488 -1.08643e-06H10.838C13.737 -1.08643e-06 15.325 1.587 15.325 4.487V17.034C15.325 19.934 13.737 21.521 10.838 21.521H4.488Z" transform="translate(308.394 55.3739)" fill="#1493FF"/>
<mask id="mask0" mask-type="alpha" maskUnits="userSpaceOnUse" x="334" y="55" width="17" height="22">
<path d="M2.85149e-08 -1.30653e-08H15.3249V21.277H2.85149e-08V-1.30653e-08Z" transform="translate(334.675 55.4959)" fill="white"/>
</mask>
<g mask="url(#mask0)">
<path fill-rule="evenodd" clip-rule="evenodd" d="M6.35 12.302H4.671V21.277H2.85149e-08V-1.30653e-08H4.671V8.364H6.747L10.349 4.823C10.684 4.518 10.837 4.06 10.837 3.449V-1.30653e-08H15.264V4.213C15.264 5.159 14.958 5.922 14.378 6.472L10.441 10.318L14.592 15.05C15.08 15.599 15.325 16.301 15.325 17.156V21.277H10.654V18.041C10.654 17.492 10.501 17.033 10.166 16.637L6.35 12.302Z" transform="translate(334.675 55.4959)" fill="#1493FF"/>
</g>
<mask id="mask1" mask-type="alpha" maskUnits="userSpaceOnUse" x="33" y="0" width="52" height="84">
<path d="M1.36143e-09 -4.79263e-10H50.6804V83.7014H1.36143e-09V-4.79263e-10Z" transform="translate(33.4408 0.258339)" fill="white"/>
</mask>
<g mask="url(#mask1)">
<path fill-rule="evenodd" clip-rule="evenodd" d="M9.00135 83.6422C33.8274 69.1052 50.6804 42.0102 50.6804 11.3942C50.6804 11.1462 50.5494 10.9142 50.3344 10.7912C40.0554 4.89017 28.0024 1.00417 15.3474 0.00216538C15.1034 -0.0168346 14.8644 0.0901654 14.7154 0.285165C11.4204 4.60617 8.57435 9.28817 6.24635 14.2612C6.16835 14.4282 6.29435 14.6182 6.47835 14.6132C7.18935 14.5912 7.90335 14.5802 8.61935 14.5802C18.0644 14.5802 27.0654 16.4712 35.2694 19.8922C32.8624 38.6662 22.9414 55.0882 8.61935 66.0482C5.69535 63.8102 2.95635 61.3452 0.425354 58.6782C0.259354 58.5032 -0.0346462 58.6462 0.00335384 58.8842C1.39935 67.6672 4.28735 75.9532 8.39735 83.4752C8.51535 83.6892 8.79035 83.7662 9.00135 83.6422Z" transform="translate(33.4408 0.258339)" fill="#1493FF"/>
</g>
<path fill-rule="evenodd" clip-rule="evenodd" d="M27.554 51.254C25.883 48.896 24.355 46.429 22.984 43.864C24.369 43.207 25.795 42.619 27.254 42.104C27.521 42.01 27.705 41.768 27.724 41.486C28.072 36.268 28.91 31.183 30.194 26.278C30.239 26.108 30.088 25.948 29.915 25.984C25.56 26.889 21.38 28.271 17.432 30.072C16.525 26.854 15.845 23.541 15.41 20.151C21.11 17.774 27.195 16.136 33.546 15.358C33.776 15.329 33.973 15.181 34.064 14.968C36.273 9.795 38.89 5.168 42.174 0.358004C42.277 0.207004 42.169 -0.000996358 41.986 3.64195e-06C26.408 0.0720036 12.671 4.067 0.37 11.036C0.14 11.166 0 11.414 0 11.678C0 38.057 13.149 62.97 33.248 78.254C33.444 78.403 33.709 78.197 33.616 77.97C30.247 69.757 28.179 60.874 27.666 51.576C27.66 51.461 27.621 51.349 27.554 51.254Z" fill="#1493FF"/>
</svg>
